<?xml version="1.0" encoding="utf-8"?>
<!-- Generator: Adobe Illustrator 18.0.0, SVG Export Plug-In . SVG Version: 6.00 Build 0)  -->
<!DOCTYPE svg PUBLIC "-//W3C//DTD SVG 1.1//EN" "http://www.w3.org/Graphics/SVG/1.1/DTD/svg11.dtd">
<svg version="1.1" xmlns="http://www.w3.org/2000/svg" xmlns:xlink="http://www.w3.org/1999/xlink" viewBox="0 0 60 51" id="header-website-logo" width="100%" height="100%">
  		<g id="webix-logo-160" fill="none" fill-rule="evenodd"><path id="Bg" fill="#5B2E6E" d="M0 33.861905L0 0.230880231 15.4356327 17.1069073 30.9379509 0.230880231 46.2336474 17.019439 61.6450216 0.230880231 61.6450216 33.9393939 46.4069264 51.024531 30.9379509 34.1702742 15.4689755 51.024531z"></path><path d="M7.73496491,25.6277056 C9.33730989,23.8734933 14.4939532,18.2290103 15.4689755,17.1615048 C13.5097055,15.0176085 3.19673709,3.73010234 0,0.230880231 C0.195004462,0.871573932 6.95081157,23.0531895 7.73496491,25.6277056 Z" id="Triangle-10" fill="url(#linearGradient-1)"></path><path id="Shadow-4" fill="url(#linearGradient-2)" transform="translate(4.716805, 13.453377) rotate(-17.000000) translate(-4.716805, -13.453377)" d="M4.07198595 -0.570419989L7.6930819 6.95843806 7.83368857 27.4771745 1.59992234 27.4771745z"></path><path id="Triangle-9" fill="url(#linearGradient-2)" transform="translate(10.851371, 21.240981) rotate(-125.000000) translate(-10.851371, -21.240981)" d="M7.15728716 14.7763348L14.5454545 17.2042574 13.8659675 27.051333 8.95146491 27.7056277z"></path><path id="Triangle-8" fill="url(#linearGradient-3)" d="M46.1760462 17.0843L61.6450216 33.9393939 61.6450216 0.230880231z"></path><path id="Shadow-3" fill="url(#linearGradient-4)" transform="translate(55.522571, 23.763536) rotate(-46.000000) translate(-55.522571, -23.763536)" d="M53.8320166 12.4089014L58.589459 12.2906691 57.272042 30.5852997 52.4556832 35.2364033z"></path><path id="Triangle-7" fill="url(#linearGradient-5)" d="M46.4069264 51.024531L61.6450216 33.9393939 40.6349206 10.8513709z"></path><path id="Triangle-6" fill="url(#linearGradient-6)" d="M30.9379509 34.1702742L46.4069264 51.024531 40.6349206 10.8513709z"></path><path id="Triangle-5" fill="url(#linearGradient-7)" d="M15.4689755 51.024531L30.9379509 34.1702742 30.9379509 0.230880231z"></path><path id="Shadow-2" fill="url(#linearGradient-8)" d="M15.4689755 51.024531L21.5180835 44.4337118 30.9379509 10.1457953 30.9379509 0.230880231z"></path><path id="Triangle-4" fill="url(#linearGradient-9)" d="M30.9379509 34.1702742L40.6349206 10.8513709 30.9379509 0.230880231z"></path><path d="M7.61904762,25.5949211 C8.14859209,27.3297551 15.4700339,51.024531 15.4700339,51.024531 L30.9379509,0.230880231 L7.61904762,25.5949211 Z" id="Triangle-2" fill="url(#linearGradient-10)"></path><path id="Shadow-1" fill="url(#linearGradient-11)" transform="translate(13.554391, 35.799068) rotate(-17.000000) translate(-13.554391, -35.799068)" d="M10.0683737 24.7595424L17.040409 20.6794303 16.9808194 47.3675109 10.9339192 50.9187048z"></path><path id="Triangle-1" fill="url(#linearGradient-12)" d="M0 34.0500979L15.4689755 51.024531 0.000634624635 0.230880231z"></path></g>
  	</svg>